# xmcd
#
# Track frame offsets: 
#        150
#        22447
#        42216
#        65964
#        85695
#        104079
#        124808
#        154183
#        178590
#        194736
#
# Disc length: 2883 seconds
#
# Revision: 0
# Processed by: cddbd v1.5.2PL0 Copyright (c) Steve Scherf et al.
# Submitted via: ExactAudioCopy v1.3
#
DISCID=970b410a
DTITLE=BlueTouch - 40 Miles...
DYEAR=2019
DGENRE=Blues Rock
TTITLE0=Everybody Knows
TTITLE1=40 Miles of Bad Road
TTITLE2=Ain't Gonna Drown
TTITLE3=In My Time of Dying
TTITLE4=I Put a Spell on You
TTITLE5=I Can't Wait That Long
TTITLE6=I Feel Like a Wolf
TTITLE7=Unchain My Heart
TTITLE8=If I Had Possession over Judgement Day
TTITLE9=When the Levee Breaks
EXTD=
EXTT0=
EXTT1=
EXTT2=
EXTT3=
EXTT4=
EXTT5=
EXTT6=
EXTT7=
EXTT8=
EXTT9=
PLAYORDER=
